<mxfile host="app.diagrams.net" modified="2024-01-17T17:27:29.309Z" agent="Mozilla/5.0 (Windows NT 10.0; Win64; x64; rv:121.0) Gecko/20100101 Firefox/121.0" etag="ZxCNAtLV7P7EnJgSuhNb" version="22.1.21" type="github">
  <diagram name="Seite-1" id="H8ygi_F45hdM_7PtmzMp">
    <mxGraphModel dx="1050" dy="1774" grid="1" gridSize="10" guides="1" tooltips="1" connect="1" arrows="1" fold="1" page="1" pageScale="1" pageWidth="827" pageHeight="1169" math="0" shadow="0">
      <root>
        <mxCell id="0" />
        <mxCell id="1" parent="0" />
        <mxCell id="OFnNgNDI8FSxPV16W2ii-17" value="" style="edgeStyle=orthogonalEdgeStyle;rounded=0;orthogonalLoop=1;jettySize=auto;html=1;" edge="1" parent="1" source="OFnNgNDI8FSxPV16W2ii-4" target="OFnNgNDI8FSxPV16W2ii-5">
          <mxGeometry relative="1" as="geometry" />
        </mxCell>
        <mxCell id="OFnNgNDI8FSxPV16W2ii-18" value="" style="edgeStyle=orthogonalEdgeStyle;rounded=0;orthogonalLoop=1;jettySize=auto;html=1;" edge="1" parent="1" source="OFnNgNDI8FSxPV16W2ii-4" target="OFnNgNDI8FSxPV16W2ii-6">
          <mxGeometry relative="1" as="geometry" />
        </mxCell>
        <mxCell id="OFnNgNDI8FSxPV16W2ii-4" value="&lt;b&gt;Grenzlinien&lt;/b&gt;" style="ellipse;whiteSpace=wrap;html=1;" vertex="1" parent="1">
          <mxGeometry x="270" y="-490" width="140" height="100" as="geometry" />
        </mxCell>
        <mxCell id="OFnNgNDI8FSxPV16W2ii-5" value="Feld - Weg Raine" style="rounded=0;whiteSpace=wrap;html=1;" vertex="1" parent="1">
          <mxGeometry x="110" y="-320" width="120" height="60" as="geometry" />
        </mxCell>
        <mxCell id="OFnNgNDI8FSxPV16W2ii-12" value="" style="edgeStyle=orthogonalEdgeStyle;rounded=0;orthogonalLoop=1;jettySize=auto;html=1;" edge="1" parent="1" source="OFnNgNDI8FSxPV16W2ii-6" target="OFnNgNDI8FSxPV16W2ii-9">
          <mxGeometry relative="1" as="geometry" />
        </mxCell>
        <mxCell id="OFnNgNDI8FSxPV16W2ii-13" value="" style="edgeStyle=orthogonalEdgeStyle;rounded=0;orthogonalLoop=1;jettySize=auto;html=1;" edge="1" parent="1" source="OFnNgNDI8FSxPV16W2ii-6" target="OFnNgNDI8FSxPV16W2ii-8">
          <mxGeometry relative="1" as="geometry" />
        </mxCell>
        <mxCell id="OFnNgNDI8FSxPV16W2ii-6" value="Strukturreichtum" style="rounded=0;whiteSpace=wrap;html=1;" vertex="1" parent="1">
          <mxGeometry x="435" y="-320" width="120" height="60" as="geometry" />
        </mxCell>
        <mxCell id="OFnNgNDI8FSxPV16W2ii-7" value="" style="rounded=0;whiteSpace=wrap;html=1;" vertex="1" parent="1">
          <mxGeometry x="70" y="-560" width="120" height="60" as="geometry" />
        </mxCell>
        <mxCell id="OFnNgNDI8FSxPV16W2ii-8" value="" style="rounded=0;whiteSpace=wrap;html=1;" vertex="1" parent="1">
          <mxGeometry x="520" y="-200" width="120" height="60" as="geometry" />
        </mxCell>
        <mxCell id="OFnNgNDI8FSxPV16W2ii-9" value="Vielseitiges Habitatsangebot" style="rounded=0;whiteSpace=wrap;html=1;" vertex="1" parent="1">
          <mxGeometry x="324" y="-200" width="120" height="60" as="geometry" />
        </mxCell>
        <mxCell id="OFnNgNDI8FSxPV16W2ii-21" value="" style="endArrow=classic;startArrow=classic;html=1;rounded=0;exitX=1;exitY=0.5;exitDx=0;exitDy=0;entryX=0;entryY=0.5;entryDx=0;entryDy=0;" edge="1" parent="1" source="OFnNgNDI8FSxPV16W2ii-5" target="OFnNgNDI8FSxPV16W2ii-6">
          <mxGeometry width="50" height="50" relative="1" as="geometry">
            <mxPoint x="410" y="-220" as="sourcePoint" />
            <mxPoint x="460" y="-270" as="targetPoint" />
          </mxGeometry>
        </mxCell>
        <mxCell id="OFnNgNDI8FSxPV16W2ii-28" value="" style="edgeStyle=orthogonalEdgeStyle;rounded=0;orthogonalLoop=1;jettySize=auto;html=1;" edge="1" parent="1" source="OFnNgNDI8FSxPV16W2ii-27" target="OFnNgNDI8FSxPV16W2ii-9">
          <mxGeometry relative="1" as="geometry" />
        </mxCell>
        <mxCell id="OFnNgNDI8FSxPV16W2ii-27" value="&lt;b&gt;Feldfrucht Reichtum&lt;br&gt;&lt;/b&gt;" style="ellipse;whiteSpace=wrap;html=1;" vertex="1" parent="1">
          <mxGeometry x="470" y="-50" width="140" height="100" as="geometry" />
        </mxCell>
        <mxCell id="OFnNgNDI8FSxPV16W2ii-29" value="" style="endArrow=classic;html=1;rounded=0;exitX=1;exitY=0.5;exitDx=0;exitDy=0;entryX=1;entryY=0.5;entryDx=0;entryDy=0;" edge="1" parent="1" source="OFnNgNDI8FSxPV16W2ii-27" target="OFnNgNDI8FSxPV16W2ii-6">
          <mxGeometry width="50" height="50" relative="1" as="geometry">
            <mxPoint x="410" as="sourcePoint" />
            <mxPoint x="710" y="-290" as="targetPoint" />
            <Array as="points">
              <mxPoint x="720" />
              <mxPoint x="710" y="-290" />
            </Array>
          </mxGeometry>
        </mxCell>
      </root>
    </mxGraphModel>
  </diagram>
</mxfile>
